<svg id="Calque_1" data-name="Calque 1" xmlns="http://www.w3.org/2000/svg" xmlns:xlink="http://www.w3.org/1999/xlink" viewBox="0 0 490.48 173.05"><defs><style>.cls-1,.cls-2,.cls-3,.cls-4,.cls-5,.cls-6,.cls-8,.cls-9{stroke:#42210b;}.cls-1{stroke-linecap:round;fill:url(#Noyer_noir);}.cls-1,.cls-2,.cls-8{stroke-linejoin:round;}.cls-1,.cls-2,.cls-3,.cls-5,.cls-6,.cls-8,.cls-9{stroke-width:0.5px;}.cls-2,.cls-3,.cls-4{fill:none;}.cls-3,.cls-4,.cls-5,.cls-6,.cls-9{stroke-miterlimit:10;}.cls-4{stroke-width:0.25px;}.cls-5{fill:#b2dfdb;}.cls-6{fill:#2a4263;}.cls-7{fill:#42210b;}.cls-8{fill:url(#Noyer_noir-2);}.cls-9{fill:url(#Noyer_noir-3);}</style><linearGradient id="Noyer_noir" x1="439.96" y1="59.82" x2="552.58" y2="150.31" gradientUnits="userSpaceOnUse"><stop offset="0" stop-color="#6a3306"/><stop offset="0.11" stop-color="#854a12"/><stop offset="0.25" stop-color="#4c2b17"/><stop offset="0.39" stop-color="#925b1b"/><stop offset="0.57" stop-color="#5a2400"/><stop offset="0.68" stop-color="#5b2600"/><stop offset="0.78" stop-color="#502e19"/><stop offset="0.88" stop-color="#813f10"/><stop offset="1" stop-color="#4c2b17"/></linearGradient><linearGradient id="Noyer_noir-2" x1="226.98" y1="42.12" x2="230.83" y2="260.64" xlink:href="#Noyer_noir"/><linearGradient id="Noyer_noir-3" x1="228.16" y1="832.71" x2="717.14" y2="832.71" xlink:href="#Noyer_noir"/></defs><title>BAC</title><polygon class="cls-1" points="490.23 0.25 490.23 115.46 489.88 116.01 455.57 172.33 455.57 45.26 490.23 0.25"/><polygon class="cls-2" points="490.23 116.01 455.57 172.33 489.88 116.01 490.23 116.01"/><line class="cls-3" x1="490.23" y1="0.25" x2="489.87" y2="0.25"/><line class="cls-4" x1="0.89" y1="45.26" x2="0.73" y2="45.26"/><line class="cls-4" x1="0.73" y1="173.05" x2="0.73" y2="172.33"/><polygon class="cls-5" points="168.23 6.27 119.13 40.93 78.7 40.93 78.7 6.27 168.23 6.27"/><polygon class="cls-6" points="78.7 6.27 78.7 40.93 22.39 40.93 74.37 8.94 78.7 6.27"/><polygon class="cls-5" points="272.19 6.27 230.32 40.93 181.22 40.93 181.22 6.27 272.19 6.27"/><polygon class="cls-5" points="374.71 6.27 341.5 40.93 285.19 40.93 285.19 6.27 374.71 6.27"/><polygon class="cls-5" points="475.79 6.27 449.8 40.93 387.71 40.93 387.71 6.27 475.79 6.27"/><polygon class="cls-6" points="181.22 6.27 181.22 40.93 133.57 40.93 181.22 6.27"/><path class="cls-7" d="M273,871.47c-.23,1.28-2.82-4-6.4-7.11-3.45-3.61-7.89-5-9-7.82s1-6.85,10.68-14.41a90.56,90.56,0,0,1,52.61-17.87c26-3.69,41.11-5.23,48.46-2.22,7.42,2.68,7.08,9.92,4,16.16s-9.06,11.66-13.42,12.76c-4.49,1.62-7.42-1-7.73,1.49l0,0c-5.9,10.12-18.74,16-25,24.73-4.91,5.78-6.47,5-6.74-.91-2.46,7.12-4.68,13.87-6.3,17.41-3,6.52-4.33,1.56-6.28-2.68a20.09,20.09,0,0,1-7.08.5c-3.15,3-8.12,2.83-15.56-5.34-4.79-5.33-9.52-12.4-12.15-14.7Z" transform="translate(-227.27 -809.95)"/><path class="cls-3" d="M273,871.47c-.23,1.28-2.82-4-6.4-7.11-3.45-3.61-7.89-5-9-7.82s1-6.85,10.68-14.41a90.56,90.56,0,0,1,52.61-17.87c26-3.69,41.11-5.23,48.46-2.22,7.42,2.68,7.08,9.92,4,16.16s-9.06,11.66-13.42,12.76c-4.49,1.62-7.42-1-7.73,1.49l0,0c-5.9,10.12-18.74,16-25,24.73-4.91,5.78-6.47,5-6.74-.91-2.46,7.12-4.68,13.87-6.3,17.41-3,6.52-4.33,1.56-6.28-2.68a20.09,20.09,0,0,1-7.08.5c-3.15,3-8.12,2.83-15.56-5.34-4.79-5.33-9.52-12.4-12.15-14.7Z" transform="translate(-227.27 -809.95)"/><path class="cls-7" d="M387,871.47c-.23,1.28-2.82-4-6.39-7.11-3.46-3.61-7.9-5-9-7.82s1-6.85,10.69-14.41a90.5,90.5,0,0,1,52.6-17.87c26-3.69,41.11-5.23,48.46-2.22,7.43,2.68,7.08,9.92,4,16.16s-9.06,11.66-13.41,12.76c-4.5,1.62-7.43-1-7.74,1.49l0,0c-5.9,10.12-18.74,16-25,24.73-4.92,5.78-6.48,5-6.75-.91-2.46,7.12-4.68,13.87-6.3,17.41-3,6.52-4.33,1.56-6.28-2.68a20.09,20.09,0,0,1-7.08.5c-3.15,3-8.12,2.83-15.55-5.34-4.8-5.33-9.52-12.4-12.16-14.7Z" transform="translate(-227.27 -809.95)"/><path class="cls-3" d="M387,871.47c-.23,1.28-2.82-4-6.39-7.11-3.46-3.61-7.9-5-9-7.82s1-6.85,10.69-14.41a90.5,90.5,0,0,1,52.6-17.87c26-3.69,41.11-5.23,48.46-2.22,7.43,2.68,7.08,9.92,4,16.16s-9.06,11.66-13.41,12.76c-4.5,1.62-7.43-1-7.74,1.49l0,0c-5.9,10.12-18.74,16-25,24.73-4.92,5.78-6.48,5-6.75-.91-2.46,7.12-4.68,13.87-6.3,17.41-3,6.52-4.33,1.56-6.28-2.68a20.09,20.09,0,0,1-7.08.5c-3.15,3-8.12,2.83-15.55-5.34-4.8-5.33-9.52-12.4-12.16-14.7Z" transform="translate(-227.27 -809.95)"/><polygon class="cls-6" points="285.19 6.27 285.19 40.93 244.76 40.93 285.19 6.27"/><path class="cls-7" d="M496.78,871.47c-.23,1.28-2.82-4-6.39-7.11-3.46-3.61-7.9-5-9-7.82s1-6.85,10.69-14.41a90.5,90.5,0,0,1,52.6-17.87c26-3.69,41.11-5.23,48.46-2.22,7.43,2.68,7.08,9.92,4,16.16S588,849.86,583.65,851c-4.5,1.62-7.43-1-7.74,1.49l0,0c-5.9,10.12-18.74,16-25,24.73-4.92,5.78-6.48,5-6.75-.91-2.46,7.12-4.68,13.87-6.3,17.41-3,6.52-4.33,1.56-6.28-2.68a20.09,20.09,0,0,1-7.08.5c-3.15,3-8.12,2.83-15.55-5.34-4.8-5.33-9.52-12.4-12.16-14.7Z" transform="translate(-227.27 -809.95)"/><path class="cls-3" d="M496.78,871.47c-.23,1.28-2.82-4-6.39-7.11-3.46-3.61-7.9-5-9-7.82s1-6.85,10.69-14.41a90.5,90.5,0,0,1,52.6-17.87c26-3.69,41.11-5.23,48.46-2.22,7.43,2.68,7.08,9.92,4,16.16S588,849.86,583.65,851c-4.5,1.62-7.43-1-7.74,1.49l0,0c-5.9,10.12-18.74,16-25,24.73-4.92,5.78-6.48,5-6.75-.91-2.46,7.12-4.68,13.87-6.3,17.41-3,6.52-4.33,1.56-6.28-2.68a20.09,20.09,0,0,1-7.08.5c-3.15,3-8.12,2.83-15.55-5.34-4.8-5.33-9.52-12.4-12.16-14.7Z" transform="translate(-227.27 -809.95)"/><polygon class="cls-6" points="387.71 6.27 387.71 40.93 354.5 40.93 387.71 6.27"/><path class="cls-7" d="M593.53,874.36c-.23,1.28-2.82-4-6.4-7.12-3.45-3.61-7.89-5-9-7.82s1-6.85,10.69-14.4a90.43,90.43,0,0,1,52.6-17.87c26-3.69,41.11-5.23,48.46-2.22,7.43,2.68,7.08,9.92,4,16.16s-9.06,11.66-13.42,12.76c-4.49,1.62-7.43-1-7.73,1.49l0,0c-5.91,10.12-18.74,16-25,24.73-4.92,5.77-6.47,5-6.75-.91-2.46,7.11-4.68,13.87-6.29,17.41-3,6.52-4.34,1.56-6.29-2.68a20.27,20.27,0,0,1-7.07.5c-3.15,3-8.12,2.83-15.56-5.35-4.79-5.32-9.52-12.39-12.15-14.7Z" transform="translate(-227.27 -809.95)"/><path class="cls-3" d="M593.53,874.36c-.23,1.28-2.82-4-6.4-7.12-3.45-3.61-7.89-5-9-7.82s1-6.85,10.69-14.4a90.43,90.43,0,0,1,52.6-17.87c26-3.69,41.11-5.23,48.46-2.22,7.43,2.68,7.08,9.92,4,16.16s-9.06,11.66-13.42,12.76c-4.49,1.62-7.43-1-7.73,1.49l0,0c-5.91,10.12-18.74,16-25,24.73-4.92,5.77-6.47,5-6.75-.91-2.46,7.11-4.68,13.87-6.29,17.41-3,6.52-4.34,1.56-6.29-2.68a20.27,20.27,0,0,1-7.07.5c-3.15,3-8.12,2.83-15.56-5.35-4.79-5.32-9.52-12.39-12.15-14.7Z" transform="translate(-227.27 -809.95)"/><polygon class="cls-8" points="455.57 45.26 455.57 172.33 0.73 172.33 0.73 45.36 0.89 45.26 455.57 45.26"/><path class="cls-9" d="M301.64,810.2l-73.48,45H682.85l34.29-45Zm-52,40.68,52-32,4.33-2.67H395.5l-49.1,34.66Zm111.18,0,47.65-34.66h91l-41.87,34.66Zm111.19,0,40.43-34.66H602l-33.21,34.66Zm205,0h-95.3L615,816.22h88.08Z" transform="translate(-227.27 -809.95)"/></svg>