<svg xmlns="http://www.w3.org/2000/svg" xmlns:xlink="http://www.w3.org/1999/xlink" viewBox="0 0 233.62 355.84"><defs><style>.cls-1,.cls-2,.cls-3,.cls-4,.cls-5,.cls-6,.cls-7{stroke:#331500;stroke-miterlimit:10;stroke-width:0.5px;}.cls-1{fill:url(#Dégradé_sans_nom_3);}.cls-2{fill:url(#Dégradé_sans_nom_3-2);}.cls-3{fill:url(#Dégradé_sans_nom_3-3);}.cls-4{fill:url(#Peuplier);}.cls-5{fill:url(#Teck);}.cls-6{fill:url(#Peuplier-2);}.cls-7{fill:url(#Dégradé_sans_nom_2);}</style><linearGradient id="Dégradé_sans_nom_3" x1="38.46" y1="325.93" x2="49.46" y2="355.18" gradientUnits="userSpaceOnUse"><stop offset="0" stop-color="#d1a979"/><stop offset="0.02" stop-color="#be986e"/><stop offset="0.05" stop-color="#a27e5c"/><stop offset="0.09" stop-color="#8d6c50"/><stop offset="0.12" stop-color="#816148"/><stop offset="0.15" stop-color="#7d5d46"/><stop offset="0.25" stop-color="#a5815f"/><stop offset="0.43" stop-color="#d1a979"/><stop offset="0.48" stop-color="#ae895e"/><stop offset="0.55" stop-color="#896843"/><stop offset="0.59" stop-color="#7b5b38"/><stop offset="0.69" stop-color="#7e593a"/><stop offset="0.87" stop-color="#d1a979"/></linearGradient><linearGradient id="Dégradé_sans_nom_3-2" x1="21.04" y1="334.96" x2="21.04" y2="356.96" xlink:href="#Dégradé_sans_nom_3"/><linearGradient id="Dégradé_sans_nom_3-3" x1="49.67" y1="334.96" x2="49.67" y2="356.96" xlink:href="#Dégradé_sans_nom_3"/><linearGradient id="Peuplier" x1="95.6" y1="283.37" x2="113.1" y2="312.87" gradientUnits="userSpaceOnUse"><stop offset="0" stop-color="#eed5a2"/><stop offset="0.17" stop-color="#c0995e"/><stop offset="0.28" stop-color="#efcd9a"/><stop offset="0.53" stop-color="#c79f61"/><stop offset="0.67" stop-color="#eecb94"/><stop offset="0.8" stop-color="#efcd9a"/><stop offset="0.94" stop-color="#e7ba70"/></linearGradient><linearGradient id="Teck" x1="117.75" y1="291.99" x2="132.75" y2="317.49" gradientUnits="userSpaceOnUse"><stop offset="0" stop-color="#d1a979"/><stop offset="0.02" stop-color="#be986e"/><stop offset="0.05" stop-color="#a27e5c"/><stop offset="0.09" stop-color="#8d6c50"/><stop offset="0.12" stop-color="#816148"/><stop offset="0.15" stop-color="#7d5d46"/><stop offset="0.25" stop-color="#a5815f"/><stop offset="0.43" stop-color="#d1a979"/><stop offset="0.51" stop-color="#b18a61"/><stop offset="0.63" stop-color="#8c6745"/><stop offset="0.69" stop-color="#7e593a"/><stop offset="0.87" stop-color="#d1a979"/><stop offset="0.89" stop-color="#c8a172"/><stop offset="0.93" stop-color="#b08b60"/><stop offset="0.98" stop-color="#886742"/><stop offset="1" stop-color="#7b5b38"/></linearGradient><linearGradient id="Peuplier-2" x1="145.03" y1="154.1" x2="79.82" y2="188.89" xlink:href="#Peuplier"/><linearGradient id="Dégradé_sans_nom_2" x1="105.77" y1="175.05" x2="62.29" y2="198.23" xlink:href="#Teck"/></defs><title>construction</title><g id="Calque_2" data-name="Calque 2"><g id="Calque_1-2" data-name="Calque 1"><polygon class="cls-1" points="30.29 353.46 60.29 335.46 55.29 321.46 30.29 331.46 30.29 353.46"/><rect class="cls-2" x="11.29" y="331.46" width="19.5" height="22"/><rect class="cls-3" x="41.04" y="331.46" width="17.25" height="22"/><polygon class="cls-4" points="191.29 254.46 58.29 331.46 41.04 331.46 53.29 322.46 30.79 331.46 11.29 331.46 159.29 251.46 191.29 254.46"/><polygon class="cls-5" points="58.29 353.46 191.29 272.46 191.29 254.46 58.29 331.46 58.29 353.46"/><polygon class="cls-6" points="233.29 322.46 189.29 355.46 11.29 0.46 37 7.68 55.29 38.46 43.01 9.36 68.29 16.46 233.29 322.46"/><polygon class="cls-7" points="189.29 355.46 165.29 355.46 0.29 14.46 11.29 0.46 189.29 355.46"/></g></g></svg>